<?xml version="1.0" encoding="UTF-8" standalone="no"?>
<!-- Created with Inkscape (http://www.inkscape.org/) -->

<svg
   width="1024"
   height="1024"
   viewBox="0 0 270.93333 270.93333"
   version="1.1"
   id="svg1"
   inkscape:version="1.3.2 (091e20e, 2023-11-25, custom)"
   sodipodi:docname="icon-mask-monochrome.svg"
   xml:space="preserve"
   inkscape:export-filename="icon-384-mask-mono.png"
   inkscape:export-xdpi="36"
   inkscape:export-ydpi="36"
   xmlns:inkscape="http://www.inkscape.org/namespaces/inkscape"
   xmlns:sodipodi="http://sodipodi.sourceforge.net/DTD/sodipodi-0.dtd"
   xmlns="http://www.w3.org/2000/svg"
   xmlns:svg="http://www.w3.org/2000/svg"><sodipodi:namedview
     id="namedview1"
     pagecolor="#505050"
     bordercolor="#eeeeee"
     borderopacity="1"
     inkscape:showpageshadow="0"
     inkscape:pageopacity="0"
     inkscape:pagecheckerboard="0"
     inkscape:deskcolor="#505050"
     inkscape:document-units="mm"
     inkscape:zoom="0.72426346"
     inkscape:cx="635.81835"
     inkscape:cy="449.42209"
     inkscape:window-width="1920"
     inkscape:window-height="1009"
     inkscape:window-x="-8"
     inkscape:window-y="-8"
     inkscape:window-maximized="1"
     inkscape:current-layer="layer1"
     showgrid="false" /><defs
     id="defs1" /><g
     inkscape:label="Calque 1"
     inkscape:groupmode="layer"
     id="layer1"><g
       id="g33"
       style="stroke:#000000;stroke-width:2;stroke-linecap:butt;stroke-dasharray:none;stroke-opacity:1;fill:#1a1a1a"
       transform="matrix(0.89636058,0,0,0.89636058,11.283181,17.294789)"><path
         style="fill:#1a1a1a;fill-opacity:1;stroke:#000000;stroke-width:2;stroke-linecap:butt;stroke-linejoin:round;stroke-dasharray:none;stroke-opacity:1"
         d="M 28.859779,89.501844 H 248.7786"
         id="path29"
         sodipodi:nodetypes="cc" /><path
         style="fill:#1a1a1a;fill-opacity:1;stroke:#000000;stroke-width:2;stroke-linecap:butt;stroke-linejoin:round;stroke-dasharray:none;stroke-opacity:1"
         d="M 28.859779,110.66852 H 248.7786"
         id="path30"
         sodipodi:nodetypes="cc" /><path
         style="fill:#1a1a1a;fill-opacity:1;stroke:#000000;stroke-width:2;stroke-linecap:butt;stroke-linejoin:round;stroke-dasharray:none;stroke-opacity:1"
         d="M 28.859779,131.8352 H 248.7786"
         id="path31"
         sodipodi:nodetypes="cc" /><path
         style="fill:#1a1a1a;fill-opacity:1;stroke:#000000;stroke-width:2;stroke-linecap:butt;stroke-linejoin:round;stroke-dasharray:none;stroke-opacity:1"
         d="M 28.859779,153.00188 H 248.7786"
         id="path32"
         sodipodi:nodetypes="cc" /><path
         style="fill:#1a1a1a;fill-opacity:1;stroke:#000000;stroke-width:2;stroke-linecap:butt;stroke-linejoin:round;stroke-dasharray:none;stroke-opacity:1"
         d="M 28.859779,174.16856 H 248.7786"
         id="path33"
         sodipodi:nodetypes="cc" /></g><g
       id="g28"
       transform="matrix(0.89636058,0,0,0.89636058,-7.528693,14.038438)"
       style="fill:#000000"><path
         id="path28"
         style="fill:#000000;fill-opacity:1;stroke:none;stroke-width:0.0175171"
         d="m 139.12695,22.673828 c -3.10025,0.08919 -5.60261,2.314687 -7.42652,4.626887 -3.92386,5.140503 -5.8755,11.468336 -7.1273,17.731816 -1.61148,8.397204 -1.53299,17.153224 0.55013,25.462229 1.75996,7.354002 4.05436,14.565715 6.20799,21.811584 0.11409,0.574721 0.48089,1.194228 0.44452,1.742282 -7.25487,9.723944 -14.91645,19.260274 -20.53482,30.068384 -4.12797,7.91312 -6.98577,16.72162 -6.73958,25.72978 0.20207,7.0434 1.9312,14.01368 4.75886,20.45395 4.02289,9.0334 10.70406,17.09077 19.50932,21.77417 7.26855,3.87089 15.74753,5.28415 23.90158,4.26519 4.0316,-0.3993 8.01585,-1.2648 11.85231,-2.56666 2.51905,8.50713 5.25695,16.97649 7.14932,25.65925 0.83661,3.91661 1.20025,8.14328 -0.35973,11.93525 -1.18929,3.09 -3.49518,5.75012 -6.22514,7.468 -2.08797,1.34981 -4.58377,2.22803 -7.10397,2.51582 -2.96313,0.46783 -6.3959,0.0181 -8.49173,-2.33223 -0.47775,-0.41149 -0.52139,-0.7371 0.18267,-0.84167 4.88491,-1.99699 8.34541,-7.25153 7.83463,-12.56652 -0.31529,-4.05506 -2.69805,-7.91542 -6.302,-9.85293 -3.81507,-2.19084 -8.75892,-2.26939 -12.5912,-0.0782 -3.9873,2.21636 -6.6302,6.55472 -6.90961,11.09463 -0.29382,3.19686 -0.0359,6.524 1.1898,9.51425 2.10214,4.53319 6.40797,7.61683 10.90111,9.51649 6.61475,2.76011 14.20089,3.24743 21.08046,1.19793 5.1498,-1.59291 9.76302,-5.13327 12.22631,-9.97803 2.81475,-5.42579 3.06605,-11.8271 2.04315,-17.75256 -0.83709,-4.5312 -2.20485,-8.94379 -3.46418,-13.37119 -1.49223,-5.02033 -3.07968,-10.01078 -4.72239,-14.98373 3.92245,-2.39095 7.59593,-5.30912 10.30795,-9.05419 5.56026,-7.28794 7.3871,-17.00242 5.80409,-25.94386 -1.39587,-8.02952 -5.50737,-15.73499 -12.02783,-20.74702 -4.68956,-3.7461 -10.707,-5.89562 -16.7319,-5.56993 -2.61078,0.15752 -5.23035,0.48819 -7.7488,1.21539 -2.25923,-6.55108 -4.45426,-13.12384 -6.66015,-19.69336 4.37224,-5.93131 8.42768,-12.206418 10.9093,-19.187804 3.55835,-9.715482 4.52493,-20.252855 3.54382,-30.517274 -0.4978,-5.151257 -1.26343,-10.290964 -2.47439,-15.325295 -1.42886,-5.537432 -3.46196,-10.978323 -6.50288,-15.84243 -1.90063,-3.004537 -4.36962,-5.952374 -7.80845,-7.193497 -0.78493,-0.264543 -1.61612,-0.399456 -2.44475,-0.384872 z m 5.57227,21.453125 c 1.977,0.301985 3.10453,2.269448 3.71711,3.929367 1.47587,4.168289 1.72248,8.734517 1.04102,13.031584 -1.26615,7.462618 -4.88349,14.353594 -8.94562,20.650124 -1.27937,1.970903 -2.61692,3.903015 -3.97462,5.820566 -0.95117,-3.503666 -1.98079,-6.972176 -2.50736,-10.557867 -0.79188,-6.559874 -0.63986,-13.221049 0.90215,-19.661994 0.68316,-2.76241 1.57095,-5.320957 3.00319,-7.809176 1.32759,-2.26002 3.09332,-4.600421 5.73093,-5.34401 0.34083,-0.0663 0.68687,-0.09355 1.0332,-0.05859 z m -4.375,76.056637 c 1.46599,4.42388 2.98521,8.83941 4.33203,13.29688 -6.46136,3.7742 -11.64415,9.85168 -13.89585,17.02967 -2.13818,6.60177 -1.41908,14.26621 2.58285,20.02828 2.76314,4.20023 7.99942,8.47537 12.44795,10.68368 2.00454,0.92043 3.04741,0.53168 5.18963,1.04585 1.19805,0.0148 1.64,-1.2821 2.12855,-2.14881 -0.11827,-1.00363 -1.24201,-1.30567 -1.86379,-1.94265 -3.24648,-2.43096 -6.26924,-5.35113 -8.02489,-9.06516 -0.73638,-1.53246 -1.30208,-3.23344 -1.53713,-4.92859 -0.78269,-5.8741 2.1335,-12.08438 7.22016,-15.15707 0.53153,-0.46607 0.97753,-0.572 1.05362,0.2718 3.08996,9.16735 6.09408,18.3984 9.10379,27.60609 1.11012,3.39676 2.18327,6.80515 3.26308,10.21167 -3.9683,1.65858 -8.2906,2.53098 -12.52834,2.59496 -5.87492,0.0948 -11.87949,-1.31262 -17.09276,-4.17503 -5.40159,-2.94464 -9.7706,-7.71625 -12.19493,-13.37332 -1.51166,-3.45133 -2.37632,-7.05902 -2.83631,-10.79856 -0.44731,-3.55244 -0.54504,-7.41508 0.0467,-10.94754 1.08859,-6.21529 3.78278,-12.11297 7.59121,-17.13187 4.24291,-5.81647 9.14061,-11.10731 13.88553,-16.50848 0.3763,1.13607 0.75261,2.27214 1.12891,3.4082 z m 17.20312,26.51758 c 4.2268,0.0144 8.27375,1.97681 11.29102,4.86719 0.92315,0.89635 1.90935,2.05878 2.68945,3.19726 3.53961,5.19013 4.77622,11.85723 3.52887,17.99495 -0.3808,1.68543 -0.96548,3.21652 -1.70666,4.62452 -1.19024,2.31189 -2.87787,4.34038 -4.81244,6.06218 -4.17839,-12.22963 -8.28434,-24.48119 -12.5332,-36.68946 0.51379,-0.0302 1.02812,-0.057 1.54296,-0.0566 z"
         sodipodi:nodetypes="ccccccccccccccccccccccccccccccccccccccccccsccccccccsssccccccccccccccccccccssccccccccc" /><path
         d="m 131.3683,24.355178 c -5.03385,2.518899 -9.4259,11.153946 -11.29072,22.209059 -0.82711,4.958286 -1.03944,9.186448 -0.71498,14.318392 0.39411,6.111834 1.74632,11.556504 7.8132,31.540431 l 0.53692,1.75115 -3.55827,4.717485 c -8.34173,11.071245 -11.5589,15.693105 -15.00401,21.596875 -5.61081,9.61729 -8.41463,17.96533 -8.85886,26.40643 -0.413897,7.83712 1.7928,17.57063 5.72001,25.25286 6.81988,13.30483 17.85416,21.49229 31.14062,23.13083 3.44385,0.43409 5.80996,0.43808 9.89028,0.0333 4.08033,-0.4047 7.50447,-1.11566 10.91115,-2.24814 1.27098,-0.42384 1.93798,-0.59558 1.98799,-0.47827 0.21731,0.4671 3.29103,10.78062 4.5453,15.16068 3.49763,12.29063 4.22612,16.8424 3.35331,21.15322 -1.15509,5.72315 -4.96108,10.15388 -10.67506,12.45776 -2.08352,0.84332 -5.91396,1.41093 -7.90421,1.16571 -2.85068,-0.3494 -5.14308,-1.59843 -6.38614,-3.4907 -0.38901,-0.56919 -0.64981,-1.10148 -0.60419,-1.16015 0.0457,-0.0586 0.58225,-0.28471 1.21014,-0.48687 3.24807,-1.13027 6.02226,-3.9313 7.12553,-7.24705 0.61244,-1.87731 0.73615,-3.00498 0.48816,-4.98647 -0.58512,-4.67564 -3.89472,-8.41009 -8.54886,-9.62836 -6.8813,-1.80456 -13.63785,2.74826 -14.91657,10.02273 -0.60569,3.48298 -0.15095,8.1043 1.01615,10.51805 3.50997,7.16952 14.13094,11.91327 24.79024,11.03833 10.34641,-0.83577 17.52424,-6.8183 19.40451,-16.19824 0.72517,-3.65683 0.66804,-8.20435 -0.18861,-12.36935 -0.9523,-4.64732 -3.60865,-13.88322 -6.99088,-24.26406 l -1.25417,-3.81513 0.50838,-0.31076 c 4.6014,-2.87084 6.98026,-4.88094 9.48714,-7.98395 0.96234,-1.19732 2.1897,-2.9574 2.72405,-3.90697 6.27548,-10.9362 5.35653,-25.61506 -2.24734,-36.2973 -1.54078,-2.15513 -3.5465,-4.21677 -5.87374,-6.02633 -4.00908,-3.11732 -8.09839,-4.75932 -13.10227,-5.24531 -2.27061,-0.22709 -7.06785,0.23129 -9.48819,0.92258 -0.97118,0.28042 -1.79242,0.4891 -1.83154,0.45871 -0.0391,-0.0305 -4.42984,-12.96842 -6.12312,-18.03499 l -1.02161,-3.08512 1.84863,-2.57929 c 6.41483,-8.835205 9.95745,-16.64015 11.77041,-25.852783 1.68484,-8.543411 1.75107,-16.478233 0.24389,-26.970134 -0.98738,-6.9026 -2.06567,-11.287018 -4.03271,-16.425248 C 142.806,27.443194 136.65421,21.734123 131.3683,24.355178 Z m 9.04123,18.923209 c 2.34884,0.853551 3.98314,3.756092 4.77469,8.529469 0.88068,5.203563 0.35991,10.070553 -1.64471,15.91765 -2.01113,5.794952 -5.28894,11.766073 -10.70448,19.417024 l -1.97897,2.80744 -0.34996,-1.1037 c -0.58689,-1.86847 -2.03038,-7.47824 -2.49564,-9.64439 -0.4805,-2.287818 -0.82439,-6.587609 -0.79881,-10.050942 0.0422,-9.255838 2.17464,-17.325656 5.85456,-22.199605 2.38088,-3.122548 5.08791,-4.485231 7.34332,-3.672946 z m -5.15416,74.208163 c 0.50427,1.49041 1.92585,5.79655 3.17353,9.55957 2.2932,6.89809 2.33886,7.12187 1.7153,7.21756 -0.0869,0.0114 -0.95376,0.56069 -1.93139,1.21266 -6.09611,4.04646 -10.39728,10.02208 -12.18447,16.9012 -1.23343,4.81493 -0.77422,10.31839 1.24052,14.7092 0.74982,1.61857 2.39927,4.07787 3.70746,5.50301 2.08614,2.28107 5.65629,4.85309 8.92429,6.42134 1.63401,0.78412 5.54296,2.25453 5.89059,2.21101 0.13904,-0.0173 0.3867,-0.29554 0.56048,-0.59975 l 0.29975,-0.56712 -2.11212,-1.6423 c -4.56974,-3.50615 -7.37745,-7.32104 -8.66867,-11.71413 -0.54996,-1.85544 -0.70655,-2.96569 -0.65682,-4.68432 0.1079,-4.92126 2.23225,-9.38869 5.95152,-12.53747 1.02324,-0.85187 3.34351,-2.34271 3.76067,-2.3949 0.0869,-0.0114 0.49987,1.03198 0.90635,2.30514 0.42603,1.28839 2.1041,6.37449 3.74738,11.32376 3.97343,12.00159 8.80549,26.91452 8.72729,26.99492 -0.0283,0.0566 -0.76692,0.36078 -1.64248,0.69986 -5.28379,2.07352 -11.40209,2.83918 -16.947,2.12081 -10.0295,-1.28704 -18.02581,-5.93557 -23.0024,-13.39818 -3.04464,-4.57969 -4.87487,-10.1764 -5.52329,-16.90959 -0.60053,-6.20956 -0.11663,-10.52469 1.749,-15.93071 1.62887,-4.75848 3.56429,-8.19604 7.5831,-13.46547 1.37943,-1.81441 3.92327,-4.90439 5.65248,-6.88616 7.24707,-8.25088 8.11384,-9.2244 8.15296,-9.19398 0.0196,0.0152 0.43907,1.25142 0.92597,2.74404 z m 18.772,28.2624 c 4.77359,0.62073 9.14547,3.25129 12.37475,7.47246 2.57514,3.36736 4.12051,7.25198 4.68605,11.77118 0.73305,5.99882 -0.51337,11.13316 -3.86088,15.70071 -1.26865,1.71228 -4.22533,4.60677 -4.51867,4.37868 -0.0977,-0.0761 -0.57163,-1.46436 -4.41245,-12.82936 -3.22567,-9.55305 -8.75971,-25.70217 -8.95532,-26.13669 -0.14343,-0.29981 -0.0762,-0.32588 1.57082,-0.42606 0.96252,-0.0674 2.36175,-0.0307 3.1157,0.0691 z"
         id="path1-0"
         style="fill:#000000;fill-opacity:1;stroke:none;stroke-width:0.0175171" /></g><rect
       style="fill:#000000;fill-opacity:1;stroke:none;stroke-width:4.48179;stroke-linecap:butt;stroke-linejoin:miter;stroke-dasharray:none;stroke-opacity:1"
       id="rect34"
       width="9.5169592"
       height="77.684631"
       x="36.554829"
       y="96.624352" /><rect
       style="fill:#000000;fill-opacity:1;stroke:none;stroke-width:4.48179;stroke-linecap:butt;stroke-linejoin:miter;stroke-dasharray:none;stroke-opacity:1"
       id="rect35"
       width="10.465607"
       height="77.684631"
       x="223.9129"
       y="96.624352" /><path
       style="fill:#000000;fill-opacity:1;stroke:#000000;stroke-width:2.2409;stroke-linecap:butt;stroke-linejoin:miter;stroke-dasharray:none;stroke-opacity:1"
       d="M 217.91664,96.624351 V 173.41262"
       id="path35" /><circle
       style="fill:#000000;fill-opacity:1;stroke:#000000;stroke-width:2.2409;stroke-linecap:butt;stroke-linejoin:miter;stroke-dasharray:none;stroke-opacity:1"
       id="path36"
       cx="208.09064"
       cy="126.00249"
       r="1.7365805" /><circle
       style="fill:#000000;fill-opacity:1;stroke:#000000;stroke-width:2.2409;stroke-linecap:butt;stroke-linejoin:miter;stroke-dasharray:none;stroke-opacity:1"
       id="circle36"
       cx="208.09064"
       cy="145.44978"
       r="1.7365805" /></g></svg>
