<?xml version="1.0" encoding="UTF-8" standalone="no"?>
<!-- Created with Inkscape (http://www.inkscape.org/) -->

<svg
   width="607.55737"
   height="843.20203"
   viewBox="0 0 160.74955 223.0972"
   version="1.1"
   id="svg1"
   inkscape:version="1.3.2 (091e20e, 2023-11-25, custom)"
   sodipodi:docname="question.svg"
   xml:space="preserve"
   inkscape:export-filename="favicon.png"
   inkscape:export-xdpi="48"
   inkscape:export-ydpi="48"
   xmlns:inkscape="http://www.inkscape.org/namespaces/inkscape"
   xmlns:sodipodi="http://sodipodi.sourceforge.net/DTD/sodipodi-0.dtd"
   xmlns="http://www.w3.org/2000/svg"
   xmlns:svg="http://www.w3.org/2000/svg"><sodipodi:namedview
     id="namedview1"
     pagecolor="#505050"
     bordercolor="#eeeeee"
     borderopacity="1"
     inkscape:showpageshadow="0"
     inkscape:pageopacity="0"
     inkscape:pagecheckerboard="0"
     inkscape:deskcolor="#505050"
     inkscape:document-units="mm"
     inkscape:zoom="0.5121316"
     inkscape:cx="296.79871"
     inkscape:cy="407.12192"
     inkscape:window-width="1920"
     inkscape:window-height="1009"
     inkscape:window-x="-8"
     inkscape:window-y="-8"
     inkscape:window-maximized="1"
     inkscape:current-layer="layer1"
     showgrid="false" /><defs
     id="defs1" /><g
     inkscape:label="Calque 1"
     inkscape:groupmode="layer"
     id="layer1"
     transform="translate(-53.709871,-24.144608)"><path
       style="fill:#d07189;fill-opacity:1"
       d="m 120.61809,151.55333 c 0.43645,-2.80235 2.17979,-9.3516 3.2202,-12.09741 2.23077,-5.88739 5.59717,-11.76545 13.67349,-23.87523 6.664,-9.99211 8.68982,-13.66694 11.72112,-21.262027 1.64704,-4.126734 2.07402,-11.93038 0.90326,-16.508019 -1.96851,-7.696815 -6.99915,-13.141921 -14.54419,-15.742459 -2.303,-0.793773 -3.10894,-0.892122 -7.4913,-0.914159 -5.04789,-0.02538 -6.91054,0.31766 -10.99799,2.025504 l -1.30871,0.546815 1.84853,0.751301 c 4.36798,1.775276 10.16572,6.666341 12.4636,10.514469 3.71936,6.228622 4.45422,14.857814 1.82465,21.426359 -2.52828,6.315516 -9.07168,12.030676 -15.34881,15.395236 -6.27713,3.36456 -10.14797,4.30245 -15.91328,4.58185 -5.765298,0.2794 -9.185938,-0.28643 -14.826048,-2.48222 C 77.862933,110.8067 71.036449,104.54384 67.437697,97.027996 65.829211,93.668741 64.79631,90.568146 64.432185,85.936663 64.06806,81.30518 64.301143,72.481589 66.579722,65.823934 68.996784,59.01267 72.054055,54.275827 77.623335,48.713298 83.018369,43.324803 88.979694,39.460822 97.281996,35.971044 116.12389,28.051076 132.33338,25.789021 157.80403,29.014463 c 22.45096,2.843048 36.18505,6.000709 48.08269,22.801535 8.72388,11.482518 9.83652,25.899995 7.53219,39.793332 -0.92377,5.080348 -4.52174,19.12754 -14.26074,28.47523 -13.59287,13.04671 -22.75238,16.76867 -31.3104,33.13048 -2.13334,4.07866 -6.94948,8.91469 -8.62031,19.42029 l -0.3905,2.45533 c 0,0 -9.91929,-7.14772 -20.1583,-7.16826 -10.23902,-0.0205 -20.67494,-3.03521 -20.67494,-3.03521 0.0152,-11.21348 1.78358,-7.99964 2.61437,-13.33386 z"
       id="path3"
       sodipodi:nodetypes="sssssssscssszzsszsssszzsssczcs" /><g
       id="g3"
       style="fill:#d07189;fill-opacity:1;stroke:#d07189;stroke-opacity:1"
       transform="translate(23.812499,3.1750001)"><circle
         style="fill:#d07189;fill-opacity:1;stroke:#d07189;stroke-width:2.5;stroke-opacity:1"
         id="circle3"
         cx="113.28288"
         cy="215.43533"
         r="27.38147" /></g><path
       style="fill:#f2a238;fill-opacity:1"
       d="m 108.71894,169.92599 c 0.007,-4.99532 0.66593,-14.19998 1.31581,-18.37266 0.43645,-2.80235 2.17979,-9.3516 3.2202,-12.09741 2.23077,-5.88739 5.59717,-11.76545 13.67349,-23.87523 6.664,-9.99211 8.68982,-13.66694 11.72112,-21.262027 1.64704,-4.126734 2.07402,-11.93038 0.90326,-16.508019 -1.96851,-7.696815 -6.99915,-13.141921 -14.54419,-15.742459 -2.303,-0.793773 -3.10894,-0.892122 -7.4913,-0.914159 -5.04789,-0.02538 -6.91054,0.31766 -10.99799,2.025504 l -1.30871,0.546815 1.84853,0.751301 c 4.36798,1.775276 10.16572,6.666341 12.4636,10.514469 3.71936,6.228622 4.45422,14.857814 1.82465,21.426359 -2.52828,6.315516 -9.07168,12.030676 -15.34881,15.395236 -6.27713,3.36456 -10.14797,4.30245 -15.913271,4.58185 -5.765301,0.2794 -9.185941,-0.28643 -14.826051,-2.48222 C 67.279599,110.8067 60.453115,104.54384 56.854363,97.027996 55.245877,93.668741 54.212976,90.568146 53.848851,85.936663 53.484726,81.30518 53.717809,72.481589 55.996388,65.823934 58.41345,59.01267 61.470721,54.275827 67.040001,48.713298 72.435035,43.324803 78.761674,36.903626 87.063976,33.413848 105.90586,25.49388 121.75004,22.135884 147.22069,25.361326 c 22.45096,2.843048 36.18505,9.653846 48.08269,26.454672 8.72388,11.482518 9.83652,25.899995 7.53219,39.793332 -0.92377,5.080348 -4.52174,19.12754 -14.26074,28.47523 -13.59287,13.04671 -22.75238,16.76867 -31.3104,33.13048 -2.13334,4.07866 -6.94948,8.91469 -8.62031,19.42029 l -0.3905,2.45533 c 0,0 -9.91929,-7.14772 -20.1583,-7.16826 -10.23902,-0.0205 -19.38336,7.16826 -19.38336,7.16826 z"
       id="path1"
       sodipodi:nodetypes="csssssssscssszzsszsssszzsssczcc" /><circle
       style="fill:#f2a238;fill-opacity:1;stroke:none;stroke-width:2.5"
       id="path2"
       cx="129.15788"
       cy="215.43533"
       r="27.38147" /></g></svg>
